<svg xmlns="http://www.w3.org/2000/svg" width="300mm" height="382.544" viewBox="0 0 300 101.215"><path d="M77.052 0c-14.65-.06-29.834 7.356-36.524 20.573-11.902-2.49-23.43 7.17-25.271 18.162-14.235 4.06-20.563 23.358-9.954 34.121 6.25 7.037 16.779 9.743 25.816 7.112 4.57 11.676 19.575 17.708 31.115 12.437 12.854 11.732 34.871 11.738 47.77.068 14.941 12.713 41.19 5.267 46.49-13.603 4.145-12.005-1.88-25.806-12.403-32.31.338-16.367-15.594-30.165-31.952-28.73C104.81 6.189 90.687-.04 77.052 0z" fill="#deac00"/><g fill="#373e48"><path d="M114.537 34.027a37.41 31.632 0 0 1-37.41 31.632 37.41 31.632 0 0 1-37.411-31.632 37.41 31.632 0 0 1 37.41-31.631 37.41 31.632 0 0 1 37.41 31.631z"/><path d="M141.66 46.646a27.699 26.482 0 0 1-27.698 26.482 27.699 26.482 0 0 1-27.699-26.482 27.699 26.482 0 0 1 27.699-26.482 27.699 26.482 0 0 1 27.699 26.482z"/><path d="M155.337 70.639a26.837 25.803 0 0 1-26.836 25.803 26.837 25.803 0 0 1-26.837-25.803 26.837 25.803 0 0 1 26.837-25.804 26.837 25.803 0 0 1 26.836 25.804zM56.036 41.497A19.079 18.843 0 0 1 36.958 60.34a19.079 18.843 0 0 1-19.08-18.843 19.079 18.843 0 0 1 19.08-18.843 19.079 18.843 0 0 1 19.078 18.843z"/><path d="M45.692 59.095a21.665 19.466 0 0 1-21.664 19.466A21.665 19.466 0 0 1 2.363 59.095a21.665 19.466 0 0 1 21.665-19.466 21.665 19.466 0 0 1 21.664 19.466z"/><path d="M74.196 70.865a21.262 21.05 0 0 1-21.263 21.05 21.262 21.05 0 0 1-21.262-21.05 21.262 21.05 0 0 1 21.262-21.05 21.262 21.05 0 0 1 21.263 21.05z"/><path d="M115.8 74.882a29.652 23.936 0 0 1-29.652 23.936 29.652 23.936 0 0 1-29.652-23.936 29.652 23.936 0 0 1 29.652-23.935 29.652 23.936 0 0 1 29.653 23.935z"/></g><path d="M57.54 31.58h-5.065v-.94h1.948v-6.177h-1.948v-.842q.396 0 .848-.062.453-.068.685-.192.29-.155.453-.39.17-.241.195-.643h.974v8.305h1.91z" aria-label="1" font-weight="400" font-size="40" font-family="sans-serif" letter-spacing="0" word-spacing="0" fill="#b76a12"/><path d="M124.863 56.214h-5.066v-.94h1.948v-6.177h-1.948v-.842q.396 0 .848-.062.453-.068.686-.192.289-.155.452-.39.17-.241.195-.644h.974v8.306h1.91z" aria-label="1" font-weight="400" font-size="40" font-family="sans-serif" letter-spacing="0" word-spacing="0" fill="#c27115"/><path d="M79.81 28.713h-5.066v-.94h1.948v-6.177h-1.948v-.842q.396 0 .848-.062.453-.068.685-.192.29-.154.453-.39.17-.241.195-.643h.974v8.305h1.91z" aria-label="1" font-weight="400" font-size="40" font-family="sans-serif" letter-spacing="0" word-spacing="0" fill="#a96211"/><path d="M37.86 57.685h-5.067v-.94h1.949v-6.177h-1.949v-.842q.396 0 .849-.062.453-.068.685-.192.29-.154.453-.39.17-.241.194-.643h.975v8.305h1.91z" aria-label="1" font-weight="400" font-size="40" font-family="sans-serif" letter-spacing="0" word-spacing="0" fill="#b26712"/><path d="M70.677 37.57q0 2.482-.792 3.645-.786 1.158-2.445 1.158-1.684 0-2.464-1.176-.773-1.176-.773-3.615 0-2.457.786-3.627.785-1.176 2.451-1.176 1.684 0 2.458 1.195.779 1.188.779 3.596zm-1.653 2.81q.22-.502.295-1.176.082-.681.082-1.634 0-.94-.082-1.634-.075-.693-.301-1.176-.22-.477-.604-.718-.377-.241-.974-.241-.59 0-.98.241-.384.241-.61.73-.214.458-.296 1.195-.075.736-.075 1.615 0 .966.07 1.616.068.65.295 1.163.207.483.584.737.383.253 1.012.253.59 0 .98-.241t.604-.73z" aria-label="0" font-weight="400" font-size="40" font-family="sans-serif" letter-spacing="0" word-spacing="0" fill="#ba6c13"/><path d="M95.8 48.529q0 2.482-.792 3.645-.786 1.158-2.445 1.158-1.685 0-2.464-1.176-.773-1.176-.773-3.615 0-2.457.785-3.627.786-1.175 2.452-1.175 1.684 0 2.457 1.194.78 1.188.78 3.596zm-1.654 2.81q.22-.502.296-1.176.082-.681.082-1.634 0-.94-.082-1.634-.076-.693-.302-1.176-.22-.477-.603-.718-.377-.241-.974-.241-.591 0-.981.241-.383.241-.61.73-.213.458-.295 1.195-.075.736-.075 1.615 0 .966.069 1.616.069.65.295 1.163.207.483.585.737.383.253 1.012.253.59 0 .98-.241t.603-.73z" aria-label="0" font-weight="400" font-size="40" font-family="sans-serif" letter-spacing="0" word-spacing="0" fill="#be6e13"/><path d="M137.175 70.258q0 2.482-.792 3.645-.786 1.158-2.445 1.158-1.684 0-2.464-1.176-.773-1.176-.773-3.615 0-2.457.786-3.627.785-1.175 2.451-1.175 1.684 0 2.458 1.194.779 1.188.779 3.596zm-1.653 2.81q.22-.502.295-1.176.082-.681.082-1.634 0-.94-.082-1.634-.075-.693-.301-1.176-.22-.477-.604-.718-.377-.241-.974-.241-.59 0-.98.241-.384.241-.61.73-.214.458-.296 1.195-.075.736-.075 1.615 0 .966.07 1.616.068.65.295 1.163.207.483.584.737.383.253 1.012.253.59 0 .98-.241t.604-.73z" aria-label="0" font-weight="400" font-size="40" font-family="sans-serif" letter-spacing="0" word-spacing="0" fill="#b66912"/><path d="M39.023 36.42q0 2.481-.792 3.645-.786 1.157-2.445 1.157-1.684 0-2.464-1.176-.773-1.176-.773-3.614 0-2.457.786-3.627.786-1.176 2.451-1.176 1.685 0 2.458 1.195.78 1.188.78 3.596zm-1.653 2.81q.22-.502.295-1.177.082-.68.082-1.633 0-.941-.082-1.634-.075-.694-.301-1.176-.22-.477-.604-.718-.377-.242-.974-.242-.59 0-.98.242-.384.241-.61.73-.214.458-.295 1.195-.076.736-.076 1.615 0 .965.07 1.615.068.65.295 1.164.207.483.584.736.384.254 1.012.254.591 0 .98-.241.39-.242.604-.73z" aria-label="0" font-weight="400" font-size="40" font-family="sans-serif" letter-spacing="0" word-spacing="0" fill="#ba6c13"/><path d="M85.211 84.394h-5.066v-.941h1.949v-6.177h-1.949v-.841q.396 0 .849-.062.452-.068.685-.192.29-.155.453-.39.17-.241.194-.644h.975v8.306h1.91z" aria-label="1" font-weight="400" font-size="40" font-family="sans-serif" letter-spacing="0" word-spacing="0" fill="#d17915" fill-opacity=".93"/><path d="M79.235 54.63h-5.066v-.941h1.948v-6.177H74.17v-.842q.396 0 .848-.061.453-.069.686-.192.289-.155.452-.39.17-.242.195-.644h.974v8.306h1.91z" aria-label="1" font-weight="400" font-size="40" font-family="sans-serif" letter-spacing="0" word-spacing="0" fill="#7e3994"/><path d="M110.28 71.276q0 2.482-.791 3.646-.786 1.157-2.445 1.157-1.685 0-2.464-1.176-.773-1.176-.773-3.614 0-2.457.786-3.627.785-1.176 2.451-1.176 1.684 0 2.458 1.195.779 1.188.779 3.595zm-1.652 2.81q.22-.501.295-1.176.082-.68.082-1.634 0-.94-.082-1.634-.075-.693-.301-1.175-.22-.477-.604-.718-.377-.242-.974-.242-.59 0-.98.242-.384.241-.61.73-.214.458-.296 1.194-.075.737-.075 1.616 0 .965.07 1.615.068.65.294 1.164.208.482.585.736.383.254 1.012.254.59 0 .98-.241.39-.242.604-.73z" aria-label="0" font-weight="400" font-size="40" font-family="sans-serif" letter-spacing="0" word-spacing="0" fill="#bc6d13"/><path d="M69.825 65.844q0 2.482-.792 3.646-.786 1.157-2.445 1.157-1.685 0-2.464-1.176-.773-1.176-.773-3.614 0-2.458.786-3.627.785-1.176 2.45-1.176 1.685 0 2.458 1.194.78 1.189.78 3.596zm-1.653 2.81q.22-.501.295-1.176.082-.68.082-1.634 0-.94-.082-1.634-.075-.693-.301-1.176-.22-.476-.604-.718-.377-.241-.974-.241-.59 0-.98.241-.384.242-.61.73-.214.459-.296 1.195-.075.737-.075 1.616 0 .965.069 1.615.07.65.295 1.163.208.483.585.737.383.254 1.012.254.59 0 .98-.242.39-.241.604-.73z" aria-label="0" font-weight="400" font-size="40" font-family="sans-serif" letter-spacing="0" word-spacing="0" fill="#ad6411"/><path d="M55.444 57.685h-5.066v-.94h1.948v-6.177h-1.948v-.842q.396 0 .849-.062.452-.068.685-.192.289-.154.452-.39.17-.241.195-.643h.974v8.305h1.911z" aria-label="1" font-weight="400" font-size="40" font-family="sans-serif" letter-spacing="0" word-spacing="0" fill="#b56912"/><path d="M110.267 38.786H105.2v-.941h1.948v-6.177H105.2v-.842q.396 0 .848-.062.453-.068.685-.191.29-.155.453-.39.17-.242.195-.644h.974v8.306h1.91zM19.47 57.798h-5.066v-.94h1.949V50.68h-1.949v-.842q.396 0 .849-.062.452-.068.685-.192.29-.154.452-.39.17-.24.195-.643h.975v8.306h1.91z" aria-label="1" font-weight="400" font-size="40" font-family="sans-serif" letter-spacing="0" word-spacing="0" fill="#7e3994"/><path d="M89.87 63.826q0 2.481-.791 3.645-.786 1.157-2.445 1.157-1.685 0-2.464-1.176-.773-1.175-.773-3.614 0-2.457.785-3.627.786-1.176 2.452-1.176 1.684 0 2.457 1.195.78 1.188.78 3.596zm-1.652 2.81q.22-.502.295-1.176.082-.681.082-1.634 0-.941-.082-1.634-.075-.693-.302-1.176-.22-.477-.603-.718-.377-.242-.974-.242-.591 0-.98.242-.384.241-.61.73-.214.458-.296 1.195-.075.736-.075 1.615 0 .966.069 1.615.069.65.295 1.164.208.483.585.736.383.254 1.012.254.59 0 .98-.241.39-.242.604-.73zm-39.77 5.659q0 2.482-.792 3.645-.786 1.158-2.445 1.158-1.685 0-2.464-1.176-.773-1.176-.773-3.615 0-2.457.785-3.626.786-1.176 2.452-1.176 1.684 0 2.457 1.194.78 1.188.78 3.596zm-1.654 2.81q.22-.502.296-1.176.082-.68.082-1.634 0-.94-.082-1.634-.076-.693-.302-1.176-.22-.476-.603-.718-.377-.241-.974-.241-.591 0-.98.241-.384.242-.61.73-.214.458-.296 1.195-.075.736-.075 1.615 0 .966.069 1.616.069.65.295 1.163.208.483.585.737.383.253 1.012.253.59 0 .98-.24.39-.242.603-.731zm21.882-60.867q0 2.482-.792 3.645-.786 1.158-2.445 1.158-1.685 0-2.464-1.176-.773-1.176-.773-3.615 0-2.457.785-3.627.786-1.176 2.452-1.176 1.684 0 2.457 1.195.78 1.188.78 3.596zm-1.653 2.81q.22-.502.295-1.176.082-.681.082-1.634 0-.94-.082-1.634-.076-.693-.302-1.176-.22-.477-.603-.718-.377-.241-.974-.241-.591 0-.98.241-.384.241-.61.73-.214.458-.296 1.195-.075.736-.075 1.615 0 .966.069 1.616.069.65.295 1.163.208.483.585.737.383.253 1.012.253.59 0 .98-.241t.604-.73z" aria-label="0" font-weight="400" font-size="40" font-family="sans-serif" letter-spacing="0" word-spacing="0" fill="#7e3994"/><path d="M124.748 86.657h-5.066v-.94h1.948V79.54h-1.948v-.842q.396 0 .848-.062.453-.068.686-.192.289-.154.452-.39.17-.241.195-.643h.974v8.305h1.911z" aria-label="1" font-weight="400" font-size="40" font-family="sans-serif" letter-spacing="0" word-spacing="0" fill="#7e3994"/><text style="line-height:1.25;-inkscape-font-specification:'Courier New, Normal';font-variant-ligatures:normal;font-variant-caps:normal;font-variant-numeric:normal;font-feature-settings:normal;text-align:start" x="216.536" y="112.869" font-weight="400" font-size="25.4" font-family="Courier New" letter-spacing="0" word-spacing="0" stroke-width=".265" transform="translate(-38.802 -55.486)"><tspan x="216.536" y="112.869" style="-inkscape-font-specification:'Courier New, Normal';font-variant-ligatures:normal;font-variant-caps:normal;font-variant-numeric:normal;font-feature-settings:normal;text-align:start">Nimbus</tspan></text></svg>