<svg xmlns="http://www.w3.org/2000/svg" width="596.46" height="382.544" viewBox="0 0 157.813 101.215"><path d="M77.052 0c-14.65-.06-29.834 7.356-36.524 20.573-11.902-2.49-23.43 7.17-25.271 18.162-14.235 4.06-20.563 23.358-9.954 34.121 6.25 7.037 16.779 9.743 25.816 7.112 4.57 11.676 19.575 17.708 31.115 12.437 12.854 11.732 34.871 11.738 47.77.068 14.941 12.713 41.19 5.267 46.49-13.603 4.145-12.005-1.88-25.806-12.403-32.31.338-16.367-15.594-30.165-31.952-28.73C104.81 6.189 90.687-.04 77.052 0z" fill="#deac00"/><g fill="#373e48"><path d="M114.537 34.027a37.41 31.632 0 0 1-37.41 31.632 37.41 31.632 0 0 1-37.411-31.632 37.41 31.632 0 0 1 37.41-31.631 37.41 31.632 0 0 1 37.41 31.631z"/><path d="M141.66 46.646a27.699 26.482 0 0 1-27.698 26.482 27.699 26.482 0 0 1-27.699-26.482 27.699 26.482 0 0 1 27.699-26.482 27.699 26.482 0 0 1 27.699 26.482z"/><path d="M155.337 70.639a26.837 25.803 0 0 1-26.836 25.803 26.837 25.803 0 0 1-26.837-25.803 26.837 25.803 0 0 1 26.837-25.804 26.837 25.803 0 0 1 26.836 25.804zM56.036 41.497A19.079 18.843 0 0 1 36.958 60.34a19.079 18.843 0 0 1-19.08-18.843 19.079 18.843 0 0 1 19.08-18.843 19.079 18.843 0 0 1 19.078 18.843z"/><path d="M45.692 59.095a21.665 19.466 0 0 1-21.664 19.466A21.665 19.466 0 0 1 2.363 59.095a21.665 19.466 0 0 1 21.665-19.466 21.665 19.466 0 0 1 21.664 19.466z"/><path d="M74.196 70.865a21.262 21.05 0 0 1-21.263 21.05 21.262 21.05 0 0 1-21.262-21.05 21.262 21.05 0 0 1 21.262-21.05 21.262 21.05 0 0 1 21.263 21.05z"/><path d="M115.8 74.882a29.652 23.936 0 0 1-29.652 23.936 29.652 23.936 0 0 1-29.652-23.936 29.652 23.936 0 0 1 29.652-23.935 29.652 23.936 0 0 1 29.653 23.935z"/></g><g style="line-height:1.25"><path d="M64.151 51.888l-1.07-16.123q-.302-4.712-.302-6.765 0-2.794 1.44-4.342 1.471-1.582 3.847-1.582 2.878 0 3.848 2.02.97 1.985.97 5.755 0 2.221-.233 4.51l-1.44 16.594q-.234 2.962-1.003 4.544-.77 1.582-2.543 1.582-1.807 0-2.51-1.514-.703-1.549-1.004-4.679zm3.715 22.148q-2.042 0-3.58-1.313-1.507-1.346-1.507-3.736 0-2.087 1.44-3.534 1.471-1.481 3.58-1.481 2.108 0 3.58 1.48 1.506 1.448 1.506 3.535 0 2.356-1.506 3.703-1.506 1.346-3.513 1.346zm19.173-22.148l-1.07-16.123q-.302-4.712-.302-6.765 0-2.794 1.439-4.342 1.472-1.582 3.848-1.582 2.878 0 3.848 2.02.97 1.985.97 5.755 0 2.221-.234 4.51L94.1 51.955q-.234 2.962-1.003 4.544-.77 1.582-2.543 1.582-1.807 0-2.51-1.514-.703-1.549-1.004-4.679zm3.714 22.148q-2.04 0-3.58-1.313-1.506-1.346-1.506-3.736 0-2.087 1.439-3.534 1.472-1.481 3.58-1.481t3.58 1.48q1.507 1.448 1.507 3.535 0 2.356-1.506 3.703-1.506 1.346-3.514 1.346z" style="-inkscape-font-specification:'Arial Rounded MT Bold, Normal';font-variant-ligatures:normal;font-variant-caps:normal;font-variant-numeric:normal;font-feature-settings:normal;text-align:start" aria-label="!!" font-weight="400" font-size="40.001" font-family="Arial Rounded MT Bold" letter-spacing="0" word-spacing="0" fill="#a76000"/></g></svg>