<svg xmlns="http://www.w3.org/2000/svg" width="596.46" height="382.544" viewBox="0 0 157.813 101.215"><path d="M77.052 0c-14.65-.06-29.834 7.356-36.524 20.573-11.902-2.49-23.43 7.17-25.271 18.162-14.235 4.06-20.563 23.358-9.954 34.121 6.25 7.037 16.779 9.743 25.816 7.112 4.57 11.676 19.575 17.708 31.115 12.437 12.854 11.732 34.871 11.738 47.77.068 14.941 12.713 41.19 5.267 46.49-13.603 4.145-12.005-1.88-25.806-12.403-32.31.338-16.367-15.594-30.165-31.952-28.73C104.81 6.189 90.687-.04 77.052 0z" fill="#deac00"/><g fill="#373e48"><path d="M114.537 34.027a37.41 31.632 0 0 1-37.41 31.632 37.41 31.632 0 0 1-37.411-31.632 37.41 31.632 0 0 1 37.41-31.631 37.41 31.632 0 0 1 37.41 31.631z"/><path d="M141.66 46.646a27.699 26.482 0 0 1-27.698 26.482 27.699 26.482 0 0 1-27.699-26.482 27.699 26.482 0 0 1 27.699-26.482 27.699 26.482 0 0 1 27.699 26.482z"/><path d="M155.337 70.639a26.837 25.803 0 0 1-26.836 25.803 26.837 25.803 0 0 1-26.837-25.803 26.837 25.803 0 0 1 26.837-25.804 26.837 25.803 0 0 1 26.836 25.804zM56.036 41.497A19.079 18.843 0 0 1 36.958 60.34a19.079 18.843 0 0 1-19.08-18.843 19.079 18.843 0 0 1 19.08-18.843 19.079 18.843 0 0 1 19.078 18.843z"/><path d="M45.692 59.095a21.665 19.466 0 0 1-21.664 19.466A21.665 19.466 0 0 1 2.363 59.095a21.665 19.466 0 0 1 21.665-19.466 21.665 19.466 0 0 1 21.664 19.466z"/><path d="M74.196 70.865a21.262 21.05 0 0 1-21.263 21.05 21.262 21.05 0 0 1-21.262-21.05 21.262 21.05 0 0 1 21.262-21.05 21.262 21.05 0 0 1 21.263 21.05z"/><path d="M115.8 74.882a29.652 23.936 0 0 1-29.652 23.936 29.652 23.936 0 0 1-29.652-23.936 29.652 23.936 0 0 1 29.652-23.935 29.652 23.936 0 0 1 29.653 23.935z"/></g><g style="line-height:1.25"><path d="M60.095 38.374q0-3.198 2.04-6.463 2.042-3.299 5.957-5.453 3.915-2.154 9.135-2.154 4.852 0 8.566 1.818 3.714 1.784 5.722 4.88 2.041 3.097 2.041 6.732 0 2.861-1.17 5.015-1.139 2.155-2.745 3.737-1.572 1.548-5.688 5.25-1.138 1.044-1.84 1.852-.67.774-1.004 1.447-.335.64-.536 1.313-.167.64-.535 2.289-.636 3.5-3.982 3.5-1.74 0-2.945-1.144-1.17-1.145-1.17-3.4 0-2.827.87-4.88.87-2.087 2.308-3.636 1.439-1.582 3.881-3.736 2.142-1.885 3.079-2.827.97-.976 1.606-2.154.67-1.179.67-2.559 0-2.692-2.008-4.544-1.975-1.85-5.12-1.85-3.68 0-5.42 1.884-1.74 1.851-2.945 5.487-1.138 3.803-4.317 3.803-1.874 0-3.179-1.313-1.271-1.346-1.271-2.894zm16.329 36.89q-2.041 0-3.58-1.312-1.506-1.347-1.506-3.737 0-2.12 1.472-3.567 1.472-1.448 3.614-1.448 2.108 0 3.547 1.448 1.439 1.447 1.439 3.567 0 2.357-1.506 3.703-1.506 1.346-3.48 1.346z" style="-inkscape-font-specification:'Arial Rounded MT Bold, Normal';font-variant-ligatures:normal;font-variant-caps:normal;font-variant-numeric:normal;font-feature-settings:normal;text-align:start" font-size="40.001" font-family="Arial Rounded MT Bold" aria-label="?" font-weight="400" letter-spacing="0" word-spacing="0" fill="#a76000"/></g></svg>